M48
; DRILL file {KiCad (5.1.5)-3} date 7/11/2020 5:14:53 PM
; FORMAT={-:-/ absolute / inch / decimal}
; #@! TF.CreationDate,2020-11-07T17:14:53+10:00
; #@! TF.GenerationSoftware,Kicad,Pcbnew,(5.1.5)-3
FMAT,2
INCH
T1C0.0394
T2C0.1260
%
G90
G05
T1
X4.2Y-2.64
X4.2Y-2.74
X4.2Y-2.84
X4.2Y-2.94
X4.2Y-3.04
X4.2Y-3.14
X4.2Y-3.24
X4.2Y-3.34
X4.2Y-3.44
X4.2Y-3.54
X4.2Y-3.64
X4.2Y-3.74
X4.2Y-3.84
X4.2Y-3.94
X4.2Y-4.04
X4.2Y-4.14
X4.2Y-4.24
X4.2Y-4.34
X4.2Y-4.44
X4.2Y-4.54
X4.3Y-2.64
X4.3Y-2.74
X4.3Y-2.84
X4.3Y-2.94
X4.3Y-3.04
X4.3Y-3.14
X4.3Y-3.24
X4.3Y-3.34
X4.3Y-3.44
X4.3Y-3.54
X4.3Y-3.64
X4.3Y-3.74
X4.3Y-3.84
X4.3Y-3.94
X4.3Y-4.04
X4.3Y-4.14
X4.3Y-4.24
X4.3Y-4.34
X4.3Y-4.44
X4.3Y-4.54
X4.51Y-2.7238
X4.51Y-2.8328
X4.51Y-2.9419
X4.51Y-3.0509
X4.51Y-3.16
X4.6218Y-2.7783
X4.6218Y-2.8874
X4.6218Y-2.9964
X4.6218Y-3.1055
X4.51Y-4.0338
X4.51Y-4.1428
X4.51Y-4.2519
X4.51Y-4.3609
X4.51Y-4.47
X4.6218Y-4.0883
X4.6218Y-4.1974
X4.6218Y-4.3064
X4.6218Y-4.4155
T2
X4.5218Y-2.4498
X4.5218Y-3.434
X4.5218Y-3.7598
X4.5218Y-4.744
T0
M30
