G04 #@! TF.GenerationSoftware,KiCad,Pcbnew,(5.1.5)-3*
G04 #@! TF.CreationDate,2020-11-07T17:13:46+10:00*
G04 #@! TF.ProjectId,RaspberryPiGPIO-DualSegaController,52617370-6265-4727-9279-50694750494f,rev?*
G04 #@! TF.SameCoordinates,Original*
G04 #@! TF.FileFunction,Copper,L1,Top*
G04 #@! TF.FilePolarity,Positive*
%FSLAX46Y46*%
G04 Gerber Fmt 4.6, Leading zero omitted, Abs format (unit mm)*
G04 Created by KiCad (PCBNEW (5.1.5)-3) date 2020-11-07 17:13:46*
%MOMM*%
%LPD*%
G04 APERTURE LIST*
%ADD10R,1.600000X1.600000*%
%ADD11C,1.600000*%
%ADD12C,4.000000*%
%ADD13O,1.700000X1.700000*%
%ADD14R,1.700000X1.700000*%
%ADD15C,0.250000*%
%ADD16C,0.254000*%
G04 APERTURE END LIST*
D10*
X114554000Y-80264000D03*
D11*
X114554000Y-77494000D03*
X114554000Y-74724000D03*
X114554000Y-71954000D03*
X114554000Y-69184000D03*
X117394000Y-78879000D03*
X117394000Y-76109000D03*
X117394000Y-73339000D03*
X117394000Y-70569000D03*
D12*
X114854000Y-87224000D03*
X114854000Y-62224000D03*
X114854000Y-95498000D03*
X114854000Y-120498000D03*
D11*
X117394000Y-103843000D03*
X117394000Y-106613000D03*
X117394000Y-109383000D03*
X117394000Y-112153000D03*
X114554000Y-102458000D03*
X114554000Y-105228000D03*
X114554000Y-107998000D03*
X114554000Y-110768000D03*
D10*
X114554000Y-113538000D03*
D13*
X106680000Y-115316000D03*
X109220000Y-115316000D03*
X106680000Y-112776000D03*
X109220000Y-112776000D03*
X106680000Y-110236000D03*
X109220000Y-110236000D03*
X106680000Y-107696000D03*
X109220000Y-107696000D03*
X106680000Y-105156000D03*
X109220000Y-105156000D03*
X106680000Y-102616000D03*
X109220000Y-102616000D03*
X106680000Y-100076000D03*
X109220000Y-100076000D03*
X106680000Y-97536000D03*
X109220000Y-97536000D03*
X106680000Y-94996000D03*
X109220000Y-94996000D03*
X106680000Y-92456000D03*
X109220000Y-92456000D03*
X106680000Y-89916000D03*
X109220000Y-89916000D03*
X106680000Y-87376000D03*
X109220000Y-87376000D03*
X106680000Y-84836000D03*
X109220000Y-84836000D03*
X106680000Y-82296000D03*
X109220000Y-82296000D03*
X106680000Y-79756000D03*
X109220000Y-79756000D03*
X106680000Y-77216000D03*
X109220000Y-77216000D03*
X106680000Y-74676000D03*
X109220000Y-74676000D03*
X106680000Y-72136000D03*
X109220000Y-72136000D03*
X106680000Y-69596000D03*
X109220000Y-69596000D03*
X106680000Y-67056000D03*
D14*
X109220000Y-67056000D03*
D15*
X107855001Y-81120999D02*
X106680000Y-82296000D01*
X107855001Y-79381997D02*
X107855001Y-81120999D01*
X108655999Y-78580999D02*
X107855001Y-79381997D01*
X111333411Y-78580999D02*
X108655999Y-78580999D01*
X113545411Y-76368999D02*
X111333411Y-78580999D01*
X115495371Y-76368999D02*
X113545411Y-76368999D01*
X117394000Y-74470370D02*
X115495371Y-76368999D01*
X117394000Y-73339000D02*
X117394000Y-74470370D01*
X107988998Y-107188000D02*
X107188000Y-107188000D01*
X107188000Y-107188000D02*
X106680000Y-107696000D01*
X109784001Y-106520999D02*
X108655999Y-106520999D01*
X117134001Y-106872999D02*
X114013999Y-106872999D01*
X114013999Y-106872999D02*
X113698998Y-107188000D01*
X108655999Y-106520999D02*
X107988998Y-107188000D01*
X117394000Y-106613000D02*
X117134001Y-106872999D01*
X113698998Y-107188000D02*
X110451002Y-107188000D01*
X110451002Y-107188000D02*
X109784001Y-106520999D01*
X107529999Y-108545999D02*
X106680000Y-107696000D01*
X110266001Y-111893001D02*
X109784001Y-111411001D01*
X107855001Y-110610003D02*
X107855001Y-108871001D01*
X115094001Y-111893001D02*
X110266001Y-111893001D01*
X118120401Y-110958011D02*
X116028991Y-110958011D01*
X119419021Y-109659391D02*
X118120401Y-110958011D01*
X119419021Y-70292609D02*
X119419021Y-109659391D01*
X115007411Y-65880999D02*
X119419021Y-70292609D01*
X108109999Y-65880999D02*
X115007411Y-65880999D01*
X108044999Y-65945999D02*
X108109999Y-65880999D01*
X116028991Y-110958011D02*
X115094001Y-111893001D01*
X108044999Y-68166001D02*
X108044999Y-65945999D01*
X108109999Y-68231001D02*
X108044999Y-68166001D01*
X107855001Y-108871001D02*
X107529999Y-108545999D01*
X109594003Y-68231001D02*
X108109999Y-68231001D01*
X111672003Y-70309001D02*
X109594003Y-68231001D01*
X114574003Y-70309001D02*
X111672003Y-70309001D01*
X108655999Y-111411001D02*
X107855001Y-110610003D01*
X116594001Y-72328999D02*
X114574003Y-70309001D01*
X116594001Y-72539001D02*
X116594001Y-72328999D01*
X109784001Y-111411001D02*
X108655999Y-111411001D01*
X117394000Y-73339000D02*
X116594001Y-72539001D01*
X107855001Y-98711001D02*
X106680000Y-97536000D01*
X107855001Y-100640001D02*
X107855001Y-98711001D01*
X108466001Y-101251001D02*
X107855001Y-100640001D01*
X109594003Y-101251001D02*
X108466001Y-101251001D01*
X111926003Y-103583001D02*
X109594003Y-101251001D01*
X115959003Y-104968001D02*
X114574003Y-103583001D01*
X118519001Y-106072999D02*
X117414003Y-104968001D01*
X118519001Y-109923001D02*
X118519001Y-106072999D01*
X117414003Y-104968001D02*
X115959003Y-104968001D01*
X117934001Y-110508001D02*
X118519001Y-109923001D01*
X114574003Y-103583001D02*
X111926003Y-103583001D01*
X114813999Y-110508001D02*
X117934001Y-110508001D01*
X114554000Y-110768000D02*
X114813999Y-110508001D01*
X109678370Y-94996000D02*
X109220000Y-94996000D01*
X117394000Y-102711630D02*
X109678370Y-94996000D01*
X117394000Y-103843000D02*
X117394000Y-102711630D01*
X107855001Y-91280999D02*
X106680000Y-92456000D01*
X107855001Y-87001997D02*
X107855001Y-91280999D01*
X111737003Y-86200999D02*
X108655999Y-86200999D01*
X118519001Y-79419001D02*
X111737003Y-86200999D01*
X108655999Y-86200999D02*
X107855001Y-87001997D01*
X118519001Y-77234001D02*
X118519001Y-79419001D01*
X117394000Y-76109000D02*
X118519001Y-77234001D01*
X112426000Y-67056000D02*
X109220000Y-67056000D01*
X114554000Y-69184000D02*
X112426000Y-67056000D01*
X110395001Y-90480001D02*
X110395001Y-88551001D01*
X109784001Y-91091001D02*
X110395001Y-90480001D01*
X108806999Y-91091001D02*
X109784001Y-91091001D01*
X108044999Y-91853001D02*
X108806999Y-91091001D01*
X108655999Y-96171001D02*
X108044999Y-95560001D01*
X109784001Y-96171001D02*
X108655999Y-96171001D01*
X108044999Y-95560001D02*
X108044999Y-91853001D01*
X113754001Y-100141001D02*
X109784001Y-96171001D01*
X113754001Y-101658001D02*
X113754001Y-100141001D01*
X114554000Y-102458000D02*
X113754001Y-101658001D01*
X111393001Y-89549001D02*
X110236000Y-88392000D01*
X115970001Y-89549001D02*
X111393001Y-89549001D01*
X118969011Y-86549991D02*
X115970001Y-89549001D01*
X118969011Y-70479009D02*
X118969011Y-86549991D01*
X114554000Y-69184000D02*
X115353999Y-68384001D01*
X116874003Y-68384001D02*
X118969011Y-70479009D01*
X110236000Y-88392000D02*
X109220000Y-87376000D01*
X115353999Y-68384001D02*
X116874003Y-68384001D01*
X110395001Y-88551001D02*
X110236000Y-88392000D01*
X107855001Y-83660999D02*
X106680000Y-84836000D01*
X113342003Y-83660999D02*
X107855001Y-83660999D01*
X116594001Y-80409001D02*
X113342003Y-83660999D01*
X116594001Y-79678999D02*
X116594001Y-80409001D01*
X117394000Y-78879000D02*
X116594001Y-79678999D01*
X107855001Y-78580999D02*
X106680000Y-79756000D01*
X107855001Y-76802999D02*
X107855001Y-78580999D01*
X113237001Y-76040999D02*
X108617001Y-76040999D01*
X108617001Y-76040999D02*
X107855001Y-76802999D01*
X114554000Y-74724000D02*
X113237001Y-76040999D01*
X112292000Y-79756000D02*
X109220000Y-79756000D01*
X114554000Y-77494000D02*
X112292000Y-79756000D01*
D16*
G36*
X114632707Y-101025139D02*
G01*
X114483488Y-101017783D01*
X114203870Y-101059213D01*
X113937708Y-101154397D01*
X113812486Y-101221329D01*
X113740903Y-101465298D01*
X114554000Y-102278395D01*
X114568143Y-102264253D01*
X114747748Y-102443858D01*
X114733605Y-102458000D01*
X115546702Y-103271097D01*
X115790671Y-103199514D01*
X115911571Y-102944004D01*
X115980300Y-102669816D01*
X115994217Y-102387488D01*
X115994071Y-102386503D01*
X116407586Y-102800018D01*
X116279363Y-102928241D01*
X116122320Y-103163273D01*
X116014147Y-103424426D01*
X115959000Y-103701665D01*
X115959000Y-103893196D01*
X115137807Y-103072004D01*
X115114004Y-103043000D01*
X114998279Y-102948027D01*
X114866250Y-102877455D01*
X114762325Y-102845930D01*
X114554000Y-102637605D01*
X114539858Y-102651748D01*
X114360253Y-102472143D01*
X114374395Y-102458000D01*
X113561298Y-101644903D01*
X113317329Y-101716486D01*
X113196429Y-101971996D01*
X113127700Y-102246184D01*
X113113783Y-102528512D01*
X113155213Y-102808130D01*
X113160531Y-102823001D01*
X112240805Y-102823001D01*
X110400295Y-100982492D01*
X110535990Y-100779411D01*
X110647932Y-100509158D01*
X110705000Y-100222260D01*
X110705000Y-99929740D01*
X110647932Y-99642842D01*
X110535990Y-99372589D01*
X110373475Y-99129368D01*
X110166632Y-98922525D01*
X109992240Y-98806000D01*
X110166632Y-98689475D01*
X110373475Y-98482632D01*
X110535990Y-98239411D01*
X110647932Y-97969158D01*
X110705000Y-97682260D01*
X110705000Y-97389740D01*
X110647932Y-97102842D01*
X110603753Y-96996184D01*
X114632707Y-101025139D01*
G37*
X114632707Y-101025139D02*
X114483488Y-101017783D01*
X114203870Y-101059213D01*
X113937708Y-101154397D01*
X113812486Y-101221329D01*
X113740903Y-101465298D01*
X114554000Y-102278395D01*
X114568143Y-102264253D01*
X114747748Y-102443858D01*
X114733605Y-102458000D01*
X115546702Y-103271097D01*
X115790671Y-103199514D01*
X115911571Y-102944004D01*
X115980300Y-102669816D01*
X115994217Y-102387488D01*
X115994071Y-102386503D01*
X116407586Y-102800018D01*
X116279363Y-102928241D01*
X116122320Y-103163273D01*
X116014147Y-103424426D01*
X115959000Y-103701665D01*
X115959000Y-103893196D01*
X115137807Y-103072004D01*
X115114004Y-103043000D01*
X114998279Y-102948027D01*
X114866250Y-102877455D01*
X114762325Y-102845930D01*
X114554000Y-102637605D01*
X114539858Y-102651748D01*
X114360253Y-102472143D01*
X114374395Y-102458000D01*
X113561298Y-101644903D01*
X113317329Y-101716486D01*
X113196429Y-101971996D01*
X113127700Y-102246184D01*
X113113783Y-102528512D01*
X113155213Y-102808130D01*
X113160531Y-102823001D01*
X112240805Y-102823001D01*
X110400295Y-100982492D01*
X110535990Y-100779411D01*
X110647932Y-100509158D01*
X110705000Y-100222260D01*
X110705000Y-99929740D01*
X110647932Y-99642842D01*
X110535990Y-99372589D01*
X110373475Y-99129368D01*
X110166632Y-98922525D01*
X109992240Y-98806000D01*
X110166632Y-98689475D01*
X110373475Y-98482632D01*
X110535990Y-98239411D01*
X110647932Y-97969158D01*
X110705000Y-97682260D01*
X110705000Y-97389740D01*
X110647932Y-97102842D01*
X110603753Y-96996184D01*
X114632707Y-101025139D01*
G36*
X118659022Y-103153308D02*
G01*
X118508637Y-102928241D01*
X118308759Y-102728363D01*
X118148798Y-102621481D01*
X118143003Y-102562644D01*
X118099546Y-102419383D01*
X118028974Y-102287354D01*
X117957799Y-102200627D01*
X117934001Y-102171629D01*
X117905003Y-102147831D01*
X113558904Y-97801733D01*
X113605859Y-97833107D01*
X114085399Y-98031739D01*
X114594475Y-98133000D01*
X115113525Y-98133000D01*
X115622601Y-98031739D01*
X116102141Y-97833107D01*
X116533715Y-97544738D01*
X116900738Y-97177715D01*
X117189107Y-96746141D01*
X117387739Y-96266601D01*
X117489000Y-95757525D01*
X117489000Y-95238475D01*
X117387739Y-94729399D01*
X117189107Y-94249859D01*
X116900738Y-93818285D01*
X116533715Y-93451262D01*
X116102141Y-93162893D01*
X115622601Y-92964261D01*
X115113525Y-92863000D01*
X114594475Y-92863000D01*
X114085399Y-92964261D01*
X113605859Y-93162893D01*
X113174285Y-93451262D01*
X112807262Y-93818285D01*
X112518893Y-94249859D01*
X112320261Y-94729399D01*
X112219000Y-95238475D01*
X112219000Y-95757525D01*
X112320261Y-96266601D01*
X112518893Y-96746141D01*
X112550268Y-96793096D01*
X110705000Y-94947829D01*
X110705000Y-94849740D01*
X110647932Y-94562842D01*
X110535990Y-94292589D01*
X110373475Y-94049368D01*
X110166632Y-93842525D01*
X109992240Y-93726000D01*
X110166632Y-93609475D01*
X110373475Y-93402632D01*
X110535990Y-93159411D01*
X110647932Y-92889158D01*
X110705000Y-92602260D01*
X110705000Y-92309740D01*
X110647932Y-92022842D01*
X110535990Y-91752589D01*
X110373475Y-91509368D01*
X110166632Y-91302525D01*
X109992240Y-91186000D01*
X110166632Y-91069475D01*
X110373475Y-90862632D01*
X110535990Y-90619411D01*
X110647932Y-90349158D01*
X110705000Y-90062260D01*
X110705000Y-89769740D01*
X110647932Y-89482842D01*
X110535990Y-89212589D01*
X110373475Y-88969368D01*
X110166632Y-88762525D01*
X109984466Y-88640805D01*
X110101355Y-88571178D01*
X110317588Y-88376269D01*
X110491641Y-88142920D01*
X110616825Y-87880099D01*
X110661476Y-87732890D01*
X110540155Y-87503000D01*
X109347000Y-87503000D01*
X109347000Y-87523000D01*
X109093000Y-87523000D01*
X109093000Y-87503000D01*
X109073000Y-87503000D01*
X109073000Y-87249000D01*
X109093000Y-87249000D01*
X109093000Y-87229000D01*
X109347000Y-87229000D01*
X109347000Y-87249000D01*
X110540155Y-87249000D01*
X110661476Y-87019110D01*
X110643850Y-86960999D01*
X111699681Y-86960999D01*
X111737003Y-86964675D01*
X111774325Y-86960999D01*
X111774336Y-86960999D01*
X111885989Y-86950002D01*
X112029250Y-86906545D01*
X112161279Y-86835973D01*
X112260808Y-86754292D01*
X112219000Y-86964475D01*
X112219000Y-87483525D01*
X112320261Y-87992601D01*
X112518893Y-88472141D01*
X112807262Y-88903715D01*
X113174285Y-89270738D01*
X113605859Y-89559107D01*
X114085399Y-89757739D01*
X114594475Y-89859000D01*
X115113525Y-89859000D01*
X115622601Y-89757739D01*
X116102141Y-89559107D01*
X116533715Y-89270738D01*
X116900738Y-88903715D01*
X117189107Y-88472141D01*
X117387739Y-87992601D01*
X117489000Y-87483525D01*
X117489000Y-86964475D01*
X117387739Y-86455399D01*
X117189107Y-85975859D01*
X116900738Y-85544285D01*
X116533715Y-85177262D01*
X116102141Y-84888893D01*
X115622601Y-84690261D01*
X115113525Y-84589000D01*
X114594475Y-84589000D01*
X114381425Y-84631378D01*
X118659021Y-80353783D01*
X118659022Y-103153308D01*
G37*
X118659022Y-103153308D02*
X118508637Y-102928241D01*
X118308759Y-102728363D01*
X118148798Y-102621481D01*
X118143003Y-102562644D01*
X118099546Y-102419383D01*
X118028974Y-102287354D01*
X117957799Y-102200627D01*
X117934001Y-102171629D01*
X117905003Y-102147831D01*
X113558904Y-97801733D01*
X113605859Y-97833107D01*
X114085399Y-98031739D01*
X114594475Y-98133000D01*
X115113525Y-98133000D01*
X115622601Y-98031739D01*
X116102141Y-97833107D01*
X116533715Y-97544738D01*
X116900738Y-97177715D01*
X117189107Y-96746141D01*
X117387739Y-96266601D01*
X117489000Y-95757525D01*
X117489000Y-95238475D01*
X117387739Y-94729399D01*
X117189107Y-94249859D01*
X116900738Y-93818285D01*
X116533715Y-93451262D01*
X116102141Y-93162893D01*
X115622601Y-92964261D01*
X115113525Y-92863000D01*
X114594475Y-92863000D01*
X114085399Y-92964261D01*
X113605859Y-93162893D01*
X113174285Y-93451262D01*
X112807262Y-93818285D01*
X112518893Y-94249859D01*
X112320261Y-94729399D01*
X112219000Y-95238475D01*
X112219000Y-95757525D01*
X112320261Y-96266601D01*
X112518893Y-96746141D01*
X112550268Y-96793096D01*
X110705000Y-94947829D01*
X110705000Y-94849740D01*
X110647932Y-94562842D01*
X110535990Y-94292589D01*
X110373475Y-94049368D01*
X110166632Y-93842525D01*
X109992240Y-93726000D01*
X110166632Y-93609475D01*
X110373475Y-93402632D01*
X110535990Y-93159411D01*
X110647932Y-92889158D01*
X110705000Y-92602260D01*
X110705000Y-92309740D01*
X110647932Y-92022842D01*
X110535990Y-91752589D01*
X110373475Y-91509368D01*
X110166632Y-91302525D01*
X109992240Y-91186000D01*
X110166632Y-91069475D01*
X110373475Y-90862632D01*
X110535990Y-90619411D01*
X110647932Y-90349158D01*
X110705000Y-90062260D01*
X110705000Y-89769740D01*
X110647932Y-89482842D01*
X110535990Y-89212589D01*
X110373475Y-88969368D01*
X110166632Y-88762525D01*
X109984466Y-88640805D01*
X110101355Y-88571178D01*
X110317588Y-88376269D01*
X110491641Y-88142920D01*
X110616825Y-87880099D01*
X110661476Y-87732890D01*
X110540155Y-87503000D01*
X109347000Y-87503000D01*
X109347000Y-87523000D01*
X109093000Y-87523000D01*
X109093000Y-87503000D01*
X109073000Y-87503000D01*
X109073000Y-87249000D01*
X109093000Y-87249000D01*
X109093000Y-87229000D01*
X109347000Y-87229000D01*
X109347000Y-87249000D01*
X110540155Y-87249000D01*
X110661476Y-87019110D01*
X110643850Y-86960999D01*
X111699681Y-86960999D01*
X111737003Y-86964675D01*
X111774325Y-86960999D01*
X111774336Y-86960999D01*
X111885989Y-86950002D01*
X112029250Y-86906545D01*
X112161279Y-86835973D01*
X112260808Y-86754292D01*
X112219000Y-86964475D01*
X112219000Y-87483525D01*
X112320261Y-87992601D01*
X112518893Y-88472141D01*
X112807262Y-88903715D01*
X113174285Y-89270738D01*
X113605859Y-89559107D01*
X114085399Y-89757739D01*
X114594475Y-89859000D01*
X115113525Y-89859000D01*
X115622601Y-89757739D01*
X116102141Y-89559107D01*
X116533715Y-89270738D01*
X116900738Y-88903715D01*
X117189107Y-88472141D01*
X117387739Y-87992601D01*
X117489000Y-87483525D01*
X117489000Y-86964475D01*
X117387739Y-86455399D01*
X117189107Y-85975859D01*
X116900738Y-85544285D01*
X116533715Y-85177262D01*
X116102141Y-84888893D01*
X115622601Y-84690261D01*
X115113525Y-84589000D01*
X114594475Y-84589000D01*
X114381425Y-84631378D01*
X118659021Y-80353783D01*
X118659022Y-103153308D01*
G36*
X117196736Y-69145125D02*
G01*
X116975426Y-69189147D01*
X116714273Y-69297320D01*
X116479241Y-69454363D01*
X116279363Y-69654241D01*
X116122320Y-69889273D01*
X116014147Y-70150426D01*
X115959000Y-70427665D01*
X115959000Y-70619197D01*
X115137807Y-69798004D01*
X115114004Y-69769000D01*
X114998279Y-69674027D01*
X114866250Y-69603455D01*
X114762325Y-69571930D01*
X114554000Y-69363605D01*
X114539858Y-69377748D01*
X114360253Y-69198143D01*
X114374395Y-69184000D01*
X114733605Y-69184000D01*
X115546702Y-69997097D01*
X115790671Y-69925514D01*
X115911571Y-69670004D01*
X115980300Y-69395816D01*
X115994217Y-69113488D01*
X115952787Y-68833870D01*
X115857603Y-68567708D01*
X115790671Y-68442486D01*
X115546702Y-68370903D01*
X114733605Y-69184000D01*
X114374395Y-69184000D01*
X113561298Y-68370903D01*
X113317329Y-68442486D01*
X113196429Y-68697996D01*
X113127700Y-68972184D01*
X113113783Y-69254512D01*
X113155213Y-69534130D01*
X113160531Y-69549001D01*
X111986805Y-69549001D01*
X110634590Y-68196787D01*
X110637523Y-68191298D01*
X113740903Y-68191298D01*
X114554000Y-69004395D01*
X115367097Y-68191298D01*
X115295514Y-67947329D01*
X115040004Y-67826429D01*
X114765816Y-67757700D01*
X114483488Y-67743783D01*
X114203870Y-67785213D01*
X113937708Y-67880397D01*
X113812486Y-67947329D01*
X113740903Y-68191298D01*
X110637523Y-68191298D01*
X110659502Y-68150180D01*
X110695812Y-68030482D01*
X110708072Y-67906000D01*
X110705000Y-67341750D01*
X110546250Y-67183000D01*
X109347000Y-67183000D01*
X109347000Y-67203000D01*
X109093000Y-67203000D01*
X109093000Y-67183000D01*
X109073000Y-67183000D01*
X109073000Y-66929000D01*
X109093000Y-66929000D01*
X109093000Y-66909000D01*
X109347000Y-66909000D01*
X109347000Y-66929000D01*
X110546250Y-66929000D01*
X110705000Y-66770250D01*
X110705704Y-66640999D01*
X114692610Y-66640999D01*
X117196736Y-69145125D01*
G37*
X117196736Y-69145125D02*
X116975426Y-69189147D01*
X116714273Y-69297320D01*
X116479241Y-69454363D01*
X116279363Y-69654241D01*
X116122320Y-69889273D01*
X116014147Y-70150426D01*
X115959000Y-70427665D01*
X115959000Y-70619197D01*
X115137807Y-69798004D01*
X115114004Y-69769000D01*
X114998279Y-69674027D01*
X114866250Y-69603455D01*
X114762325Y-69571930D01*
X114554000Y-69363605D01*
X114539858Y-69377748D01*
X114360253Y-69198143D01*
X114374395Y-69184000D01*
X114733605Y-69184000D01*
X115546702Y-69997097D01*
X115790671Y-69925514D01*
X115911571Y-69670004D01*
X115980300Y-69395816D01*
X115994217Y-69113488D01*
X115952787Y-68833870D01*
X115857603Y-68567708D01*
X115790671Y-68442486D01*
X115546702Y-68370903D01*
X114733605Y-69184000D01*
X114374395Y-69184000D01*
X113561298Y-68370903D01*
X113317329Y-68442486D01*
X113196429Y-68697996D01*
X113127700Y-68972184D01*
X113113783Y-69254512D01*
X113155213Y-69534130D01*
X113160531Y-69549001D01*
X111986805Y-69549001D01*
X110634590Y-68196787D01*
X110637523Y-68191298D01*
X113740903Y-68191298D01*
X114554000Y-69004395D01*
X115367097Y-68191298D01*
X115295514Y-67947329D01*
X115040004Y-67826429D01*
X114765816Y-67757700D01*
X114483488Y-67743783D01*
X114203870Y-67785213D01*
X113937708Y-67880397D01*
X113812486Y-67947329D01*
X113740903Y-68191298D01*
X110637523Y-68191298D01*
X110659502Y-68150180D01*
X110695812Y-68030482D01*
X110708072Y-67906000D01*
X110705000Y-67341750D01*
X110546250Y-67183000D01*
X109347000Y-67183000D01*
X109347000Y-67203000D01*
X109093000Y-67203000D01*
X109093000Y-67183000D01*
X109073000Y-67183000D01*
X109073000Y-66929000D01*
X109093000Y-66929000D01*
X109093000Y-66909000D01*
X109347000Y-66909000D01*
X109347000Y-66929000D01*
X110546250Y-66929000D01*
X110705000Y-66770250D01*
X110705704Y-66640999D01*
X114692610Y-66640999D01*
X117196736Y-69145125D01*
M02*
