G04 #@! TF.GenerationSoftware,KiCad,Pcbnew,(5.1.5)-3*
G04 #@! TF.CreationDate,2020-11-07T17:13:46+10:00*
G04 #@! TF.ProjectId,RaspberryPiGPIO-DualSegaController,52617370-6265-4727-9279-50694750494f,rev?*
G04 #@! TF.SameCoordinates,Original*
G04 #@! TF.FileFunction,Legend,Bot*
G04 #@! TF.FilePolarity,Positive*
%FSLAX46Y46*%
G04 Gerber Fmt 4.6, Leading zero omitted, Abs format (unit mm)*
G04 Created by KiCad (PCBNEW (5.1.5)-3) date 2020-11-07 17:13:46*
%MOMM*%
%LPD*%
G04 APERTURE LIST*
%ADD10C,0.150000*%
G04 APERTURE END LIST*
D10*
X120848380Y-69360666D02*
X119848380Y-69360666D01*
X120848380Y-69789238D02*
X120324571Y-69789238D01*
X120229333Y-69741619D01*
X120181714Y-69646380D01*
X120181714Y-69503523D01*
X120229333Y-69408285D01*
X120276952Y-69360666D01*
X120181714Y-70122571D02*
X120181714Y-70503523D01*
X119848380Y-70265428D02*
X120705523Y-70265428D01*
X120800761Y-70313047D01*
X120848380Y-70408285D01*
X120848380Y-70503523D01*
X120181714Y-70694000D02*
X120181714Y-71074952D01*
X119848380Y-70836857D02*
X120705523Y-70836857D01*
X120800761Y-70884476D01*
X120848380Y-70979714D01*
X120848380Y-71074952D01*
X120181714Y-71408285D02*
X121181714Y-71408285D01*
X120229333Y-71408285D02*
X120181714Y-71503523D01*
X120181714Y-71694000D01*
X120229333Y-71789238D01*
X120276952Y-71836857D01*
X120372190Y-71884476D01*
X120657904Y-71884476D01*
X120753142Y-71836857D01*
X120800761Y-71789238D01*
X120848380Y-71694000D01*
X120848380Y-71503523D01*
X120800761Y-71408285D01*
X120800761Y-72265428D02*
X120848380Y-72360666D01*
X120848380Y-72551142D01*
X120800761Y-72646380D01*
X120705523Y-72694000D01*
X120657904Y-72694000D01*
X120562666Y-72646380D01*
X120515047Y-72551142D01*
X120515047Y-72408285D01*
X120467428Y-72313047D01*
X120372190Y-72265428D01*
X120324571Y-72265428D01*
X120229333Y-72313047D01*
X120181714Y-72408285D01*
X120181714Y-72551142D01*
X120229333Y-72646380D01*
X120753142Y-73122571D02*
X120800761Y-73170190D01*
X120848380Y-73122571D01*
X120800761Y-73074952D01*
X120753142Y-73122571D01*
X120848380Y-73122571D01*
X120229333Y-73122571D02*
X120276952Y-73170190D01*
X120324571Y-73122571D01*
X120276952Y-73074952D01*
X120229333Y-73122571D01*
X120324571Y-73122571D01*
X119800761Y-74313047D02*
X121086476Y-73455904D01*
X119800761Y-75360666D02*
X121086476Y-74503523D01*
X120848380Y-75694000D02*
X120181714Y-75694000D01*
X120372190Y-75694000D02*
X120276952Y-75741619D01*
X120229333Y-75789238D01*
X120181714Y-75884476D01*
X120181714Y-75979714D01*
X120800761Y-76694000D02*
X120848380Y-76598761D01*
X120848380Y-76408285D01*
X120800761Y-76313047D01*
X120705523Y-76265428D01*
X120324571Y-76265428D01*
X120229333Y-76313047D01*
X120181714Y-76408285D01*
X120181714Y-76598761D01*
X120229333Y-76694000D01*
X120324571Y-76741619D01*
X120419809Y-76741619D01*
X120515047Y-76265428D01*
X120181714Y-77027333D02*
X120181714Y-77408285D01*
X119848380Y-77170190D02*
X120705523Y-77170190D01*
X120800761Y-77217809D01*
X120848380Y-77313047D01*
X120848380Y-77408285D01*
X120848380Y-77741619D02*
X120181714Y-77741619D01*
X120372190Y-77741619D02*
X120276952Y-77789238D01*
X120229333Y-77836857D01*
X120181714Y-77932095D01*
X120181714Y-78027333D01*
X120848380Y-78503523D02*
X120800761Y-78408285D01*
X120753142Y-78360666D01*
X120657904Y-78313047D01*
X120372190Y-78313047D01*
X120276952Y-78360666D01*
X120229333Y-78408285D01*
X120181714Y-78503523D01*
X120181714Y-78646380D01*
X120229333Y-78741619D01*
X120276952Y-78789238D01*
X120372190Y-78836857D01*
X120657904Y-78836857D01*
X120753142Y-78789238D01*
X120800761Y-78741619D01*
X120848380Y-78646380D01*
X120848380Y-78503523D01*
X120181714Y-79265428D02*
X121181714Y-79265428D01*
X120229333Y-79265428D02*
X120181714Y-79360666D01*
X120181714Y-79551142D01*
X120229333Y-79646380D01*
X120276952Y-79694000D01*
X120372190Y-79741619D01*
X120657904Y-79741619D01*
X120753142Y-79694000D01*
X120800761Y-79646380D01*
X120848380Y-79551142D01*
X120848380Y-79360666D01*
X120800761Y-79265428D01*
X120848380Y-80170190D02*
X120181714Y-80170190D01*
X119848380Y-80170190D02*
X119896000Y-80122571D01*
X119943619Y-80170190D01*
X119896000Y-80217809D01*
X119848380Y-80170190D01*
X119943619Y-80170190D01*
X120800761Y-81027333D02*
X120848380Y-80932095D01*
X120848380Y-80741619D01*
X120800761Y-80646380D01*
X120705523Y-80598761D01*
X120324571Y-80598761D01*
X120229333Y-80646380D01*
X120181714Y-80741619D01*
X120181714Y-80932095D01*
X120229333Y-81027333D01*
X120324571Y-81074952D01*
X120419809Y-81074952D01*
X120515047Y-80598761D01*
X120753142Y-81503523D02*
X120800761Y-81551142D01*
X120848380Y-81503523D01*
X120800761Y-81455904D01*
X120753142Y-81503523D01*
X120848380Y-81503523D01*
X120848380Y-82122571D02*
X120800761Y-82027333D01*
X120753142Y-81979714D01*
X120657904Y-81932095D01*
X120372190Y-81932095D01*
X120276952Y-81979714D01*
X120229333Y-82027333D01*
X120181714Y-82122571D01*
X120181714Y-82265428D01*
X120229333Y-82360666D01*
X120276952Y-82408285D01*
X120372190Y-82455904D01*
X120657904Y-82455904D01*
X120753142Y-82408285D01*
X120800761Y-82360666D01*
X120848380Y-82265428D01*
X120848380Y-82122571D01*
X120848380Y-82884476D02*
X120181714Y-82884476D01*
X120372190Y-82884476D02*
X120276952Y-82932095D01*
X120229333Y-82979714D01*
X120181714Y-83074952D01*
X120181714Y-83170190D01*
X120181714Y-83932095D02*
X120991238Y-83932095D01*
X121086476Y-83884476D01*
X121134095Y-83836857D01*
X121181714Y-83741619D01*
X121181714Y-83598761D01*
X121134095Y-83503523D01*
X120800761Y-83932095D02*
X120848380Y-83836857D01*
X120848380Y-83646380D01*
X120800761Y-83551142D01*
X120753142Y-83503523D01*
X120657904Y-83455904D01*
X120372190Y-83455904D01*
X120276952Y-83503523D01*
X120229333Y-83551142D01*
X120181714Y-83646380D01*
X120181714Y-83836857D01*
X120229333Y-83932095D01*
X120753142Y-84408285D02*
X120800761Y-84455904D01*
X120848380Y-84408285D01*
X120800761Y-84360666D01*
X120753142Y-84408285D01*
X120848380Y-84408285D01*
X120181714Y-85313047D02*
X120848380Y-85313047D01*
X120181714Y-84884476D02*
X120705523Y-84884476D01*
X120800761Y-84932095D01*
X120848380Y-85027333D01*
X120848380Y-85170190D01*
X120800761Y-85265428D01*
X120753142Y-85313047D01*
X120848380Y-85789238D02*
X119848380Y-85789238D01*
X120467428Y-85884476D02*
X120848380Y-86170190D01*
X120181714Y-86170190D02*
X120562666Y-85789238D01*
X119800761Y-87313047D02*
X121086476Y-86455904D01*
X120848380Y-88074952D02*
X119848380Y-88074952D01*
X120800761Y-88074952D02*
X120848380Y-87979714D01*
X120848380Y-87789238D01*
X120800761Y-87694000D01*
X120753142Y-87646380D01*
X120657904Y-87598761D01*
X120372190Y-87598761D01*
X120276952Y-87646380D01*
X120229333Y-87694000D01*
X120181714Y-87789238D01*
X120181714Y-87979714D01*
X120229333Y-88074952D01*
X120848380Y-88694000D02*
X120800761Y-88598761D01*
X120753142Y-88551142D01*
X120657904Y-88503523D01*
X120372190Y-88503523D01*
X120276952Y-88551142D01*
X120229333Y-88598761D01*
X120181714Y-88694000D01*
X120181714Y-88836857D01*
X120229333Y-88932095D01*
X120276952Y-88979714D01*
X120372190Y-89027333D01*
X120657904Y-89027333D01*
X120753142Y-88979714D01*
X120800761Y-88932095D01*
X120848380Y-88836857D01*
X120848380Y-88694000D01*
X120800761Y-89884476D02*
X120848380Y-89789238D01*
X120848380Y-89598761D01*
X120800761Y-89503523D01*
X120753142Y-89455904D01*
X120657904Y-89408285D01*
X120372190Y-89408285D01*
X120276952Y-89455904D01*
X120229333Y-89503523D01*
X120181714Y-89598761D01*
X120181714Y-89789238D01*
X120229333Y-89884476D01*
X120800761Y-90265428D02*
X120848380Y-90360666D01*
X120848380Y-90551142D01*
X120800761Y-90646380D01*
X120705523Y-90694000D01*
X120657904Y-90694000D01*
X120562666Y-90646380D01*
X120515047Y-90551142D01*
X120515047Y-90408285D01*
X120467428Y-90313047D01*
X120372190Y-90265428D01*
X120324571Y-90265428D01*
X120229333Y-90313047D01*
X120181714Y-90408285D01*
X120181714Y-90551142D01*
X120229333Y-90646380D01*
X119800761Y-91836857D02*
X121086476Y-90979714D01*
X119896000Y-92694000D02*
X119848380Y-92598761D01*
X119848380Y-92455904D01*
X119896000Y-92313047D01*
X119991238Y-92217809D01*
X120086476Y-92170190D01*
X120276952Y-92122571D01*
X120419809Y-92122571D01*
X120610285Y-92170190D01*
X120705523Y-92217809D01*
X120800761Y-92313047D01*
X120848380Y-92455904D01*
X120848380Y-92551142D01*
X120800761Y-92694000D01*
X120753142Y-92741619D01*
X120419809Y-92741619D01*
X120419809Y-92551142D01*
X120848380Y-93170190D02*
X119848380Y-93170190D01*
X119848380Y-93551142D01*
X119896000Y-93646380D01*
X119943619Y-93694000D01*
X120038857Y-93741619D01*
X120181714Y-93741619D01*
X120276952Y-93694000D01*
X120324571Y-93646380D01*
X120372190Y-93551142D01*
X120372190Y-93170190D01*
X120848380Y-94170190D02*
X119848380Y-94170190D01*
X119848380Y-94836857D02*
X119848380Y-95027333D01*
X119896000Y-95122571D01*
X119991238Y-95217809D01*
X120181714Y-95265428D01*
X120515047Y-95265428D01*
X120705523Y-95217809D01*
X120800761Y-95122571D01*
X120848380Y-95027333D01*
X120848380Y-94836857D01*
X120800761Y-94741619D01*
X120705523Y-94646380D01*
X120515047Y-94598761D01*
X120181714Y-94598761D01*
X119991238Y-94646380D01*
X119896000Y-94741619D01*
X119848380Y-94836857D01*
X120467428Y-95694000D02*
X120467428Y-96455904D01*
X120848380Y-96932095D02*
X119848380Y-96932095D01*
X120562666Y-97265428D01*
X119848380Y-97598761D01*
X120848380Y-97598761D01*
X120848380Y-98217809D02*
X120800761Y-98122571D01*
X120753142Y-98074952D01*
X120657904Y-98027333D01*
X120372190Y-98027333D01*
X120276952Y-98074952D01*
X120229333Y-98122571D01*
X120181714Y-98217809D01*
X120181714Y-98360666D01*
X120229333Y-98455904D01*
X120276952Y-98503523D01*
X120372190Y-98551142D01*
X120657904Y-98551142D01*
X120753142Y-98503523D01*
X120800761Y-98455904D01*
X120848380Y-98360666D01*
X120848380Y-98217809D01*
X120848380Y-99408285D02*
X119848380Y-99408285D01*
X120800761Y-99408285D02*
X120848380Y-99313047D01*
X120848380Y-99122571D01*
X120800761Y-99027333D01*
X120753142Y-98979714D01*
X120657904Y-98932095D01*
X120372190Y-98932095D01*
X120276952Y-98979714D01*
X120229333Y-99027333D01*
X120181714Y-99122571D01*
X120181714Y-99313047D01*
X120229333Y-99408285D01*
X120181714Y-100313047D02*
X120848380Y-100313047D01*
X120181714Y-99884476D02*
X120705523Y-99884476D01*
X120800761Y-99932095D01*
X120848380Y-100027333D01*
X120848380Y-100170190D01*
X120800761Y-100265428D01*
X120753142Y-100313047D01*
X120848380Y-100932095D02*
X120800761Y-100836857D01*
X120705523Y-100789238D01*
X119848380Y-100789238D01*
X120800761Y-101694000D02*
X120848380Y-101598761D01*
X120848380Y-101408285D01*
X120800761Y-101313047D01*
X120705523Y-101265428D01*
X120324571Y-101265428D01*
X120229333Y-101313047D01*
X120181714Y-101408285D01*
X120181714Y-101598761D01*
X120229333Y-101694000D01*
X120324571Y-101741619D01*
X120419809Y-101741619D01*
X120515047Y-101265428D01*
X120800761Y-102122571D02*
X120848380Y-102217809D01*
X120848380Y-102408285D01*
X120800761Y-102503523D01*
X120705523Y-102551142D01*
X120657904Y-102551142D01*
X120562666Y-102503523D01*
X120515047Y-102408285D01*
X120515047Y-102265428D01*
X120467428Y-102170190D01*
X120372190Y-102122571D01*
X120324571Y-102122571D01*
X120229333Y-102170190D01*
X120181714Y-102265428D01*
X120181714Y-102408285D01*
X120229333Y-102503523D01*
X119800761Y-103694000D02*
X121086476Y-102836857D01*
X120181714Y-103979714D02*
X120181714Y-104694000D01*
X119753142Y-104265428D02*
X121038857Y-103979714D01*
X120610285Y-104598761D02*
X120610285Y-103884476D01*
X121038857Y-104313047D02*
X119753142Y-104598761D01*
X120848380Y-105455904D02*
X119848380Y-105455904D01*
X120800761Y-105455904D02*
X120848380Y-105360666D01*
X120848380Y-105170190D01*
X120800761Y-105074952D01*
X120753142Y-105027333D01*
X120657904Y-104979714D01*
X120372190Y-104979714D01*
X120276952Y-105027333D01*
X120229333Y-105074952D01*
X120181714Y-105170190D01*
X120181714Y-105360666D01*
X120229333Y-105455904D01*
X120848380Y-105932095D02*
X119848380Y-105932095D01*
X120229333Y-105932095D02*
X120181714Y-106027333D01*
X120181714Y-106217809D01*
X120229333Y-106313047D01*
X120276952Y-106360666D01*
X120372190Y-106408285D01*
X120657904Y-106408285D01*
X120753142Y-106360666D01*
X120800761Y-106313047D01*
X120848380Y-106217809D01*
X120848380Y-106027333D01*
X120800761Y-105932095D01*
X120848380Y-106884476D02*
X120848380Y-107074952D01*
X120800761Y-107170190D01*
X120753142Y-107217809D01*
X120610285Y-107313047D01*
X120419809Y-107360666D01*
X120038857Y-107360666D01*
X119943619Y-107313047D01*
X119896000Y-107265428D01*
X119848380Y-107170190D01*
X119848380Y-106979714D01*
X119896000Y-106884476D01*
X119943619Y-106836857D01*
X120038857Y-106789238D01*
X120276952Y-106789238D01*
X120372190Y-106836857D01*
X120419809Y-106884476D01*
X120467428Y-106979714D01*
X120467428Y-107170190D01*
X120419809Y-107265428D01*
X120372190Y-107313047D01*
X120276952Y-107360666D01*
X120943619Y-107551142D02*
X120943619Y-108313047D01*
X120181714Y-108979714D02*
X120991238Y-108979714D01*
X121086476Y-108932095D01*
X121134095Y-108884476D01*
X121181714Y-108789238D01*
X121181714Y-108646380D01*
X121134095Y-108551142D01*
X120800761Y-108979714D02*
X120848380Y-108884476D01*
X120848380Y-108694000D01*
X120800761Y-108598761D01*
X120753142Y-108551142D01*
X120657904Y-108503523D01*
X120372190Y-108503523D01*
X120276952Y-108551142D01*
X120229333Y-108598761D01*
X120181714Y-108694000D01*
X120181714Y-108884476D01*
X120229333Y-108979714D01*
X120181714Y-109455904D02*
X121181714Y-109455904D01*
X120229333Y-109455904D02*
X120181714Y-109551142D01*
X120181714Y-109741619D01*
X120229333Y-109836857D01*
X120276952Y-109884476D01*
X120372190Y-109932095D01*
X120657904Y-109932095D01*
X120753142Y-109884476D01*
X120800761Y-109836857D01*
X120848380Y-109741619D01*
X120848380Y-109551142D01*
X120800761Y-109455904D01*
X120848380Y-110360666D02*
X120181714Y-110360666D01*
X119848380Y-110360666D02*
X119896000Y-110313047D01*
X119943619Y-110360666D01*
X119896000Y-110408285D01*
X119848380Y-110360666D01*
X119943619Y-110360666D01*
X120848380Y-110979714D02*
X120800761Y-110884476D01*
X120753142Y-110836857D01*
X120657904Y-110789238D01*
X120372190Y-110789238D01*
X120276952Y-110836857D01*
X120229333Y-110884476D01*
X120181714Y-110979714D01*
X120181714Y-111122571D01*
X120229333Y-111217809D01*
X120276952Y-111265428D01*
X120372190Y-111313047D01*
X120657904Y-111313047D01*
X120753142Y-111265428D01*
X120800761Y-111217809D01*
X120848380Y-111122571D01*
X120848380Y-110979714D01*
X120943619Y-111503523D02*
X120943619Y-112265428D01*
X120848380Y-112503523D02*
X120181714Y-112503523D01*
X120372190Y-112503523D02*
X120276952Y-112551142D01*
X120229333Y-112598761D01*
X120181714Y-112694000D01*
X120181714Y-112789238D01*
X120181714Y-113122571D02*
X121181714Y-113122571D01*
X120229333Y-113122571D02*
X120181714Y-113217809D01*
X120181714Y-113408285D01*
X120229333Y-113503523D01*
X120276952Y-113551142D01*
X120372190Y-113598761D01*
X120657904Y-113598761D01*
X120753142Y-113551142D01*
X120800761Y-113503523D01*
X120848380Y-113408285D01*
X120848380Y-113217809D01*
X120800761Y-113122571D01*
X120848380Y-114027333D02*
X120181714Y-114027333D01*
X119848380Y-114027333D02*
X119896000Y-113979714D01*
X119943619Y-114027333D01*
X119896000Y-114074952D01*
X119848380Y-114027333D01*
X119943619Y-114027333D01*
X112418761Y-66614571D02*
X112466380Y-66757428D01*
X112466380Y-66995523D01*
X112418761Y-67090761D01*
X112371142Y-67138380D01*
X112275904Y-67186000D01*
X112180666Y-67186000D01*
X112085428Y-67138380D01*
X112037809Y-67090761D01*
X111990190Y-66995523D01*
X111942571Y-66805047D01*
X111894952Y-66709809D01*
X111847333Y-66662190D01*
X111752095Y-66614571D01*
X111656857Y-66614571D01*
X111561619Y-66662190D01*
X111514000Y-66709809D01*
X111466380Y-66805047D01*
X111466380Y-67043142D01*
X111514000Y-67186000D01*
X111942571Y-67614571D02*
X111942571Y-67947904D01*
X112466380Y-68090761D02*
X112466380Y-67614571D01*
X111466380Y-67614571D01*
X111466380Y-68090761D01*
X111514000Y-69043142D02*
X111466380Y-68947904D01*
X111466380Y-68805047D01*
X111514000Y-68662190D01*
X111609238Y-68566952D01*
X111704476Y-68519333D01*
X111894952Y-68471714D01*
X112037809Y-68471714D01*
X112228285Y-68519333D01*
X112323523Y-68566952D01*
X112418761Y-68662190D01*
X112466380Y-68805047D01*
X112466380Y-68900285D01*
X112418761Y-69043142D01*
X112371142Y-69090761D01*
X112037809Y-69090761D01*
X112037809Y-68900285D01*
X112180666Y-69471714D02*
X112180666Y-69947904D01*
X112466380Y-69376476D02*
X111466380Y-69709809D01*
X112466380Y-70043142D01*
X111514000Y-71662190D02*
X111466380Y-71566952D01*
X111466380Y-71424095D01*
X111514000Y-71281238D01*
X111609238Y-71186000D01*
X111704476Y-71138380D01*
X111894952Y-71090761D01*
X112037809Y-71090761D01*
X112228285Y-71138380D01*
X112323523Y-71186000D01*
X112418761Y-71281238D01*
X112466380Y-71424095D01*
X112466380Y-71519333D01*
X112418761Y-71662190D01*
X112371142Y-71709809D01*
X112037809Y-71709809D01*
X112037809Y-71519333D01*
X111942571Y-72138380D02*
X111942571Y-72471714D01*
X112466380Y-72614571D02*
X112466380Y-72138380D01*
X111466380Y-72138380D01*
X111466380Y-72614571D01*
X112466380Y-73043142D02*
X111466380Y-73043142D01*
X112466380Y-73614571D01*
X111466380Y-73614571D01*
X111942571Y-74090761D02*
X111942571Y-74424095D01*
X112466380Y-74566952D02*
X112466380Y-74090761D01*
X111466380Y-74090761D01*
X111466380Y-74566952D01*
X112418761Y-74947904D02*
X112466380Y-75090761D01*
X112466380Y-75328857D01*
X112418761Y-75424095D01*
X112371142Y-75471714D01*
X112275904Y-75519333D01*
X112180666Y-75519333D01*
X112085428Y-75471714D01*
X112037809Y-75424095D01*
X111990190Y-75328857D01*
X111942571Y-75138380D01*
X111894952Y-75043142D01*
X111847333Y-74995523D01*
X111752095Y-74947904D01*
X111656857Y-74947904D01*
X111561619Y-74995523D01*
X111514000Y-75043142D01*
X111466380Y-75138380D01*
X111466380Y-75376476D01*
X111514000Y-75519333D01*
X112466380Y-75947904D02*
X111466380Y-75947904D01*
X112418761Y-76376476D02*
X112466380Y-76519333D01*
X112466380Y-76757428D01*
X112418761Y-76852666D01*
X112371142Y-76900285D01*
X112275904Y-76947904D01*
X112180666Y-76947904D01*
X112085428Y-76900285D01*
X112037809Y-76852666D01*
X111990190Y-76757428D01*
X111942571Y-76566952D01*
X111894952Y-76471714D01*
X111847333Y-76424095D01*
X111752095Y-76376476D01*
X111656857Y-76376476D01*
X111561619Y-76424095D01*
X111514000Y-76471714D01*
X111466380Y-76566952D01*
X111466380Y-76805047D01*
X111514000Y-76947904D01*
X111466380Y-78566952D02*
X111466380Y-78376476D01*
X111514000Y-78281238D01*
X111561619Y-78233619D01*
X111704476Y-78138380D01*
X111894952Y-78090761D01*
X112275904Y-78090761D01*
X112371142Y-78138380D01*
X112418761Y-78186000D01*
X112466380Y-78281238D01*
X112466380Y-78471714D01*
X112418761Y-78566952D01*
X112371142Y-78614571D01*
X112275904Y-78662190D01*
X112037809Y-78662190D01*
X111942571Y-78614571D01*
X111894952Y-78566952D01*
X111847333Y-78471714D01*
X111847333Y-78281238D01*
X111894952Y-78186000D01*
X111942571Y-78138380D01*
X112037809Y-78090761D01*
X111942571Y-80186000D02*
X111990190Y-80328857D01*
X112037809Y-80376476D01*
X112133047Y-80424095D01*
X112275904Y-80424095D01*
X112371142Y-80376476D01*
X112418761Y-80328857D01*
X112466380Y-80233619D01*
X112466380Y-79852666D01*
X111466380Y-79852666D01*
X111466380Y-80186000D01*
X111514000Y-80281238D01*
X111561619Y-80328857D01*
X111656857Y-80376476D01*
X111752095Y-80376476D01*
X111847333Y-80328857D01*
X111894952Y-80281238D01*
X111942571Y-80186000D01*
X111942571Y-79852666D01*
X111466380Y-80852666D02*
X112275904Y-80852666D01*
X112371142Y-80900285D01*
X112418761Y-80947904D01*
X112466380Y-81043142D01*
X112466380Y-81233619D01*
X112418761Y-81328857D01*
X112371142Y-81376476D01*
X112275904Y-81424095D01*
X111466380Y-81424095D01*
X111466380Y-81757428D02*
X111466380Y-82328857D01*
X112466380Y-82043142D02*
X111466380Y-82043142D01*
X111466380Y-82519333D02*
X111466380Y-83090761D01*
X112466380Y-82805047D02*
X111466380Y-82805047D01*
X111466380Y-83614571D02*
X111466380Y-83805047D01*
X111514000Y-83900285D01*
X111609238Y-83995523D01*
X111799714Y-84043142D01*
X112133047Y-84043142D01*
X112323523Y-83995523D01*
X112418761Y-83900285D01*
X112466380Y-83805047D01*
X112466380Y-83614571D01*
X112418761Y-83519333D01*
X112323523Y-83424095D01*
X112133047Y-83376476D01*
X111799714Y-83376476D01*
X111609238Y-83424095D01*
X111514000Y-83519333D01*
X111466380Y-83614571D01*
X112466380Y-84471714D02*
X111466380Y-84471714D01*
X112466380Y-85043142D01*
X111466380Y-85043142D01*
X112371142Y-86852666D02*
X112418761Y-86805047D01*
X112466380Y-86662190D01*
X112466380Y-86566952D01*
X112418761Y-86424095D01*
X112323523Y-86328857D01*
X112228285Y-86281238D01*
X112037809Y-86233619D01*
X111894952Y-86233619D01*
X111704476Y-86281238D01*
X111609238Y-86328857D01*
X111514000Y-86424095D01*
X111466380Y-86566952D01*
X111466380Y-86662190D01*
X111514000Y-86805047D01*
X111561619Y-86852666D01*
X111466380Y-87471714D02*
X111466380Y-87662190D01*
X111514000Y-87757428D01*
X111609238Y-87852666D01*
X111799714Y-87900285D01*
X112133047Y-87900285D01*
X112323523Y-87852666D01*
X112418761Y-87757428D01*
X112466380Y-87662190D01*
X112466380Y-87471714D01*
X112418761Y-87376476D01*
X112323523Y-87281238D01*
X112133047Y-87233619D01*
X111799714Y-87233619D01*
X111609238Y-87281238D01*
X111514000Y-87376476D01*
X111466380Y-87471714D01*
X112466380Y-88328857D02*
X111466380Y-88328857D01*
X112466380Y-88900285D01*
X111466380Y-88900285D01*
X111466380Y-89233619D02*
X111466380Y-89805047D01*
X112466380Y-89519333D02*
X111466380Y-89519333D01*
X112466380Y-90709809D02*
X111990190Y-90376476D01*
X112466380Y-90138380D02*
X111466380Y-90138380D01*
X111466380Y-90519333D01*
X111514000Y-90614571D01*
X111561619Y-90662190D01*
X111656857Y-90709809D01*
X111799714Y-90709809D01*
X111894952Y-90662190D01*
X111942571Y-90614571D01*
X111990190Y-90519333D01*
X111990190Y-90138380D01*
X111466380Y-91328857D02*
X111466380Y-91519333D01*
X111514000Y-91614571D01*
X111609238Y-91709809D01*
X111799714Y-91757428D01*
X112133047Y-91757428D01*
X112323523Y-91709809D01*
X112418761Y-91614571D01*
X112466380Y-91519333D01*
X112466380Y-91328857D01*
X112418761Y-91233619D01*
X112323523Y-91138380D01*
X112133047Y-91090761D01*
X111799714Y-91090761D01*
X111609238Y-91138380D01*
X111514000Y-91233619D01*
X111466380Y-91328857D01*
X112466380Y-92662190D02*
X112466380Y-92186000D01*
X111466380Y-92186000D01*
X112466380Y-93471714D02*
X112466380Y-92995523D01*
X111466380Y-92995523D01*
X111942571Y-93805047D02*
X111942571Y-94138380D01*
X112466380Y-94281238D02*
X112466380Y-93805047D01*
X111466380Y-93805047D01*
X111466380Y-94281238D01*
X112466380Y-95281238D02*
X111990190Y-94947904D01*
X112466380Y-94709809D02*
X111466380Y-94709809D01*
X111466380Y-95090761D01*
X111514000Y-95186000D01*
X111561619Y-95233619D01*
X111656857Y-95281238D01*
X111799714Y-95281238D01*
X111894952Y-95233619D01*
X111942571Y-95186000D01*
X111990190Y-95090761D01*
X111990190Y-94709809D01*
X112418761Y-95662190D02*
X112466380Y-95805047D01*
X112466380Y-96043142D01*
X112418761Y-96138380D01*
X112371142Y-96186000D01*
X112275904Y-96233619D01*
X112180666Y-96233619D01*
X112085428Y-96186000D01*
X112037809Y-96138380D01*
X111990190Y-96043142D01*
X111942571Y-95852666D01*
X111894952Y-95757428D01*
X111847333Y-95709809D01*
X111752095Y-95662190D01*
X111656857Y-95662190D01*
X111561619Y-95709809D01*
X111514000Y-95757428D01*
X111466380Y-95852666D01*
X111466380Y-96090761D01*
X111514000Y-96233619D01*
X111942571Y-97757428D02*
X111942571Y-97424095D01*
X112466380Y-97424095D02*
X111466380Y-97424095D01*
X111466380Y-97900285D01*
X111466380Y-98471714D02*
X111466380Y-98662190D01*
X111514000Y-98757428D01*
X111609238Y-98852666D01*
X111799714Y-98900285D01*
X112133047Y-98900285D01*
X112323523Y-98852666D01*
X112418761Y-98757428D01*
X112466380Y-98662190D01*
X112466380Y-98471714D01*
X112418761Y-98376476D01*
X112323523Y-98281238D01*
X112133047Y-98233619D01*
X111799714Y-98233619D01*
X111609238Y-98281238D01*
X111514000Y-98376476D01*
X111466380Y-98471714D01*
X112466380Y-99900285D02*
X111990190Y-99566952D01*
X112466380Y-99328857D02*
X111466380Y-99328857D01*
X111466380Y-99709809D01*
X111514000Y-99805047D01*
X111561619Y-99852666D01*
X111656857Y-99900285D01*
X111799714Y-99900285D01*
X111894952Y-99852666D01*
X111942571Y-99805047D01*
X111990190Y-99709809D01*
X111990190Y-99328857D01*
X112466380Y-101662190D02*
X111990190Y-101328857D01*
X112466380Y-101090761D02*
X111466380Y-101090761D01*
X111466380Y-101471714D01*
X111514000Y-101566952D01*
X111561619Y-101614571D01*
X111656857Y-101662190D01*
X111799714Y-101662190D01*
X111894952Y-101614571D01*
X111942571Y-101566952D01*
X111990190Y-101471714D01*
X111990190Y-101090761D01*
X112180666Y-102043142D02*
X112180666Y-102519333D01*
X112466380Y-101947904D02*
X111466380Y-102281238D01*
X112466380Y-102614571D01*
X112418761Y-102900285D02*
X112466380Y-103043142D01*
X112466380Y-103281238D01*
X112418761Y-103376476D01*
X112371142Y-103424095D01*
X112275904Y-103471714D01*
X112180666Y-103471714D01*
X112085428Y-103424095D01*
X112037809Y-103376476D01*
X111990190Y-103281238D01*
X111942571Y-103090761D01*
X111894952Y-102995523D01*
X111847333Y-102947904D01*
X111752095Y-102900285D01*
X111656857Y-102900285D01*
X111561619Y-102947904D01*
X111514000Y-102995523D01*
X111466380Y-103090761D01*
X111466380Y-103328857D01*
X111514000Y-103471714D01*
X112466380Y-103900285D02*
X111466380Y-103900285D01*
X111466380Y-104281238D01*
X111514000Y-104376476D01*
X111561619Y-104424095D01*
X111656857Y-104471714D01*
X111799714Y-104471714D01*
X111894952Y-104424095D01*
X111942571Y-104376476D01*
X111990190Y-104281238D01*
X111990190Y-103900285D01*
X111942571Y-105233619D02*
X111990190Y-105376476D01*
X112037809Y-105424095D01*
X112133047Y-105471714D01*
X112275904Y-105471714D01*
X112371142Y-105424095D01*
X112418761Y-105376476D01*
X112466380Y-105281238D01*
X112466380Y-104900285D01*
X111466380Y-104900285D01*
X111466380Y-105233619D01*
X111514000Y-105328857D01*
X111561619Y-105376476D01*
X111656857Y-105424095D01*
X111752095Y-105424095D01*
X111847333Y-105376476D01*
X111894952Y-105328857D01*
X111942571Y-105233619D01*
X111942571Y-104900285D01*
X111942571Y-105900285D02*
X111942571Y-106233619D01*
X112466380Y-106376476D02*
X112466380Y-105900285D01*
X111466380Y-105900285D01*
X111466380Y-106376476D01*
X112466380Y-107376476D02*
X111990190Y-107043142D01*
X112466380Y-106805047D02*
X111466380Y-106805047D01*
X111466380Y-107186000D01*
X111514000Y-107281238D01*
X111561619Y-107328857D01*
X111656857Y-107376476D01*
X111799714Y-107376476D01*
X111894952Y-107328857D01*
X111942571Y-107281238D01*
X111990190Y-107186000D01*
X111990190Y-106805047D01*
X112466380Y-108376476D02*
X111990190Y-108043142D01*
X112466380Y-107805047D02*
X111466380Y-107805047D01*
X111466380Y-108186000D01*
X111514000Y-108281238D01*
X111561619Y-108328857D01*
X111656857Y-108376476D01*
X111799714Y-108376476D01*
X111894952Y-108328857D01*
X111942571Y-108281238D01*
X111990190Y-108186000D01*
X111990190Y-107805047D01*
X111990190Y-108995523D02*
X112466380Y-108995523D01*
X111466380Y-108662190D02*
X111990190Y-108995523D01*
X111466380Y-109328857D01*
X112466380Y-110424095D02*
X111466380Y-110424095D01*
X111466380Y-110805047D01*
X111514000Y-110900285D01*
X111561619Y-110947904D01*
X111656857Y-110995523D01*
X111799714Y-110995523D01*
X111894952Y-110947904D01*
X111942571Y-110900285D01*
X111990190Y-110805047D01*
X111990190Y-110424095D01*
X112466380Y-111424095D02*
X111466380Y-111424095D01*
X111514000Y-113186000D02*
X111466380Y-113090761D01*
X111466380Y-112947904D01*
X111514000Y-112805047D01*
X111609238Y-112709809D01*
X111704476Y-112662190D01*
X111894952Y-112614571D01*
X112037809Y-112614571D01*
X112228285Y-112662190D01*
X112323523Y-112709809D01*
X112418761Y-112805047D01*
X112466380Y-112947904D01*
X112466380Y-113043142D01*
X112418761Y-113186000D01*
X112371142Y-113233619D01*
X112037809Y-113233619D01*
X112037809Y-113043142D01*
X112466380Y-113662190D02*
X111466380Y-113662190D01*
X111466380Y-114043142D01*
X111514000Y-114138380D01*
X111561619Y-114186000D01*
X111656857Y-114233619D01*
X111799714Y-114233619D01*
X111894952Y-114186000D01*
X111942571Y-114138380D01*
X111990190Y-114043142D01*
X111990190Y-113662190D01*
X112466380Y-114662190D02*
X111466380Y-114662190D01*
X111466380Y-115328857D02*
X111466380Y-115519333D01*
X111514000Y-115614571D01*
X111609238Y-115709809D01*
X111799714Y-115757428D01*
X112133047Y-115757428D01*
X112323523Y-115709809D01*
X112418761Y-115614571D01*
X112466380Y-115519333D01*
X112466380Y-115328857D01*
X112418761Y-115233619D01*
X112323523Y-115138380D01*
X112133047Y-115090761D01*
X111799714Y-115090761D01*
X111609238Y-115138380D01*
X111514000Y-115233619D01*
X111466380Y-115328857D01*
M02*
