G04 #@! TF.GenerationSoftware,KiCad,Pcbnew,(5.1.5)-3*
G04 #@! TF.CreationDate,2020-11-07T17:13:46+10:00*
G04 #@! TF.ProjectId,RaspberryPiGPIO-DualSegaController,52617370-6265-4727-9279-50694750494f,rev?*
G04 #@! TF.SameCoordinates,Original*
G04 #@! TF.FileFunction,Legend,Top*
G04 #@! TF.FilePolarity,Positive*
%FSLAX46Y46*%
G04 Gerber Fmt 4.6, Leading zero omitted, Abs format (unit mm)*
G04 Created by KiCad (PCBNEW (5.1.5)-3) date 2020-11-07 17:13:46*
%MOMM*%
%LPD*%
G04 APERTURE LIST*
%ADD10C,0.120000*%
%ADD11C,0.150000*%
G04 APERTURE END LIST*
D10*
X122274000Y-90209000D02*
X111794000Y-90209000D01*
X111794000Y-90209000D02*
X111794000Y-59239000D01*
X111794000Y-59239000D02*
X122274000Y-59239000D01*
X110899662Y-80514000D02*
X110899662Y-80014000D01*
X110899662Y-80014000D02*
X111332675Y-80264000D01*
X111332675Y-80264000D02*
X110899662Y-80514000D01*
X111332675Y-113538000D02*
X110899662Y-113788000D01*
X110899662Y-113288000D02*
X111332675Y-113538000D01*
X110899662Y-113788000D02*
X110899662Y-113288000D01*
X111794000Y-92513000D02*
X122274000Y-92513000D01*
X111794000Y-123483000D02*
X111794000Y-92513000D01*
X122274000Y-123483000D02*
X111794000Y-123483000D01*
X109220000Y-65726000D02*
X110330000Y-65726000D01*
X110330000Y-65726000D02*
X110330000Y-67056000D01*
X96590000Y-65726000D02*
X96590000Y-116646000D01*
X96590000Y-116646000D02*
X105220000Y-116646000D01*
X105220000Y-65726000D02*
X105220000Y-116646000D01*
X96590000Y-65726000D02*
X105220000Y-65726000D01*
X96590000Y-114046000D02*
X105220000Y-114046000D01*
X96590000Y-111506000D02*
X105220000Y-111506000D01*
X96590000Y-108966000D02*
X105220000Y-108966000D01*
X96590000Y-106426000D02*
X105220000Y-106426000D01*
X96590000Y-103886000D02*
X105220000Y-103886000D01*
X96590000Y-101346000D02*
X105220000Y-101346000D01*
X96590000Y-98806000D02*
X105220000Y-98806000D01*
X96590000Y-96266000D02*
X105220000Y-96266000D01*
X96590000Y-93726000D02*
X105220000Y-93726000D01*
X96590000Y-91186000D02*
X105220000Y-91186000D01*
X96590000Y-88646000D02*
X105220000Y-88646000D01*
X96590000Y-86106000D02*
X105220000Y-86106000D01*
X96590000Y-83566000D02*
X105220000Y-83566000D01*
X96590000Y-81026000D02*
X105220000Y-81026000D01*
X96590000Y-78486000D02*
X105220000Y-78486000D01*
X96590000Y-75946000D02*
X105220000Y-75946000D01*
X96590000Y-73406000D02*
X105220000Y-73406000D01*
X96590000Y-70866000D02*
X105220000Y-70866000D01*
X96590000Y-68326000D02*
X105220000Y-68326000D01*
X107730000Y-115676000D02*
X108170000Y-115676000D01*
X105220000Y-115676000D02*
X105630000Y-115676000D01*
X107730000Y-114956000D02*
X108170000Y-114956000D01*
X105220000Y-114956000D02*
X105630000Y-114956000D01*
X107730000Y-113136000D02*
X108170000Y-113136000D01*
X105220000Y-113136000D02*
X105630000Y-113136000D01*
X107730000Y-112416000D02*
X108170000Y-112416000D01*
X105220000Y-112416000D02*
X105630000Y-112416000D01*
X107730000Y-110596000D02*
X108170000Y-110596000D01*
X105220000Y-110596000D02*
X105630000Y-110596000D01*
X107730000Y-109876000D02*
X108170000Y-109876000D01*
X105220000Y-109876000D02*
X105630000Y-109876000D01*
X107730000Y-108056000D02*
X108170000Y-108056000D01*
X105220000Y-108056000D02*
X105630000Y-108056000D01*
X107730000Y-107336000D02*
X108170000Y-107336000D01*
X105220000Y-107336000D02*
X105630000Y-107336000D01*
X107730000Y-105516000D02*
X108170000Y-105516000D01*
X105220000Y-105516000D02*
X105630000Y-105516000D01*
X107730000Y-104796000D02*
X108170000Y-104796000D01*
X105220000Y-104796000D02*
X105630000Y-104796000D01*
X107730000Y-102976000D02*
X108170000Y-102976000D01*
X105220000Y-102976000D02*
X105630000Y-102976000D01*
X107730000Y-102256000D02*
X108170000Y-102256000D01*
X105220000Y-102256000D02*
X105630000Y-102256000D01*
X107730000Y-100436000D02*
X108170000Y-100436000D01*
X105220000Y-100436000D02*
X105630000Y-100436000D01*
X107730000Y-99716000D02*
X108170000Y-99716000D01*
X105220000Y-99716000D02*
X105630000Y-99716000D01*
X107730000Y-97896000D02*
X108170000Y-97896000D01*
X105220000Y-97896000D02*
X105630000Y-97896000D01*
X107730000Y-97176000D02*
X108170000Y-97176000D01*
X105220000Y-97176000D02*
X105630000Y-97176000D01*
X107730000Y-95356000D02*
X108170000Y-95356000D01*
X105220000Y-95356000D02*
X105630000Y-95356000D01*
X107730000Y-94636000D02*
X108170000Y-94636000D01*
X105220000Y-94636000D02*
X105630000Y-94636000D01*
X107730000Y-92816000D02*
X108170000Y-92816000D01*
X105220000Y-92816000D02*
X105630000Y-92816000D01*
X107730000Y-92096000D02*
X108170000Y-92096000D01*
X105220000Y-92096000D02*
X105630000Y-92096000D01*
X107730000Y-90276000D02*
X108170000Y-90276000D01*
X105220000Y-90276000D02*
X105630000Y-90276000D01*
X107730000Y-89556000D02*
X108170000Y-89556000D01*
X105220000Y-89556000D02*
X105630000Y-89556000D01*
X107730000Y-87736000D02*
X108170000Y-87736000D01*
X105220000Y-87736000D02*
X105630000Y-87736000D01*
X107730000Y-87016000D02*
X108170000Y-87016000D01*
X105220000Y-87016000D02*
X105630000Y-87016000D01*
X107730000Y-85196000D02*
X108170000Y-85196000D01*
X105220000Y-85196000D02*
X105630000Y-85196000D01*
X107730000Y-84476000D02*
X108170000Y-84476000D01*
X105220000Y-84476000D02*
X105630000Y-84476000D01*
X107730000Y-82656000D02*
X108170000Y-82656000D01*
X105220000Y-82656000D02*
X105630000Y-82656000D01*
X107730000Y-81936000D02*
X108170000Y-81936000D01*
X105220000Y-81936000D02*
X105630000Y-81936000D01*
X107730000Y-80116000D02*
X108170000Y-80116000D01*
X105220000Y-80116000D02*
X105630000Y-80116000D01*
X107730000Y-79396000D02*
X108170000Y-79396000D01*
X105220000Y-79396000D02*
X105630000Y-79396000D01*
X107730000Y-77576000D02*
X108170000Y-77576000D01*
X105220000Y-77576000D02*
X105630000Y-77576000D01*
X107730000Y-76856000D02*
X108170000Y-76856000D01*
X105220000Y-76856000D02*
X105630000Y-76856000D01*
X107730000Y-75036000D02*
X108170000Y-75036000D01*
X105220000Y-75036000D02*
X105630000Y-75036000D01*
X107730000Y-74316000D02*
X108170000Y-74316000D01*
X105220000Y-74316000D02*
X105630000Y-74316000D01*
X107730000Y-72496000D02*
X108170000Y-72496000D01*
X105220000Y-72496000D02*
X105630000Y-72496000D01*
X107730000Y-71776000D02*
X108170000Y-71776000D01*
X105220000Y-71776000D02*
X105630000Y-71776000D01*
X107730000Y-69956000D02*
X108170000Y-69956000D01*
X105220000Y-69956000D02*
X105630000Y-69956000D01*
X107730000Y-69236000D02*
X108170000Y-69236000D01*
X105220000Y-69236000D02*
X105630000Y-69236000D01*
X107730000Y-67416000D02*
X108110000Y-67416000D01*
X105220000Y-67416000D02*
X105630000Y-67416000D01*
X107730000Y-66696000D02*
X108110000Y-66696000D01*
X105220000Y-66696000D02*
X105630000Y-66696000D01*
X96590000Y-68207900D02*
X105220000Y-68207900D01*
X96590000Y-68089805D02*
X105220000Y-68089805D01*
X96590000Y-67971710D02*
X105220000Y-67971710D01*
X96590000Y-67853615D02*
X105220000Y-67853615D01*
X96590000Y-67735520D02*
X105220000Y-67735520D01*
X96590000Y-67617425D02*
X105220000Y-67617425D01*
X96590000Y-67499330D02*
X105220000Y-67499330D01*
X96590000Y-67381235D02*
X105220000Y-67381235D01*
X96590000Y-67263140D02*
X105220000Y-67263140D01*
X96590000Y-67145045D02*
X105220000Y-67145045D01*
X96590000Y-67026950D02*
X105220000Y-67026950D01*
X96590000Y-66908855D02*
X105220000Y-66908855D01*
X96590000Y-66790760D02*
X105220000Y-66790760D01*
X96590000Y-66672665D02*
X105220000Y-66672665D01*
X96590000Y-66554570D02*
X105220000Y-66554570D01*
X96590000Y-66436475D02*
X105220000Y-66436475D01*
X96590000Y-66318380D02*
X105220000Y-66318380D01*
X96590000Y-66200285D02*
X105220000Y-66200285D01*
X96590000Y-66082190D02*
X105220000Y-66082190D01*
X96590000Y-65964095D02*
X105220000Y-65964095D01*
X96590000Y-65846000D02*
X105220000Y-65846000D01*
D11*
X111306380Y-78604952D02*
X110306380Y-78604952D01*
X110306380Y-78366857D01*
X110354000Y-78224000D01*
X110449238Y-78128761D01*
X110544476Y-78081142D01*
X110734952Y-78033523D01*
X110877809Y-78033523D01*
X111068285Y-78081142D01*
X111163523Y-78128761D01*
X111258761Y-78224000D01*
X111306380Y-78366857D01*
X111306380Y-78604952D01*
X110782571Y-77271619D02*
X110830190Y-77128761D01*
X110877809Y-77081142D01*
X110973047Y-77033523D01*
X111115904Y-77033523D01*
X111211142Y-77081142D01*
X111258761Y-77128761D01*
X111306380Y-77224000D01*
X111306380Y-77604952D01*
X110306380Y-77604952D01*
X110306380Y-77271619D01*
X110354000Y-77176380D01*
X110401619Y-77128761D01*
X110496857Y-77081142D01*
X110592095Y-77081142D01*
X110687333Y-77128761D01*
X110734952Y-77176380D01*
X110782571Y-77271619D01*
X110782571Y-77604952D01*
X111306380Y-76557333D02*
X111306380Y-76366857D01*
X111258761Y-76271619D01*
X111211142Y-76224000D01*
X111068285Y-76128761D01*
X110877809Y-76081142D01*
X110496857Y-76081142D01*
X110401619Y-76128761D01*
X110354000Y-76176380D01*
X110306380Y-76271619D01*
X110306380Y-76462095D01*
X110354000Y-76557333D01*
X110401619Y-76604952D01*
X110496857Y-76652571D01*
X110734952Y-76652571D01*
X110830190Y-76604952D01*
X110877809Y-76557333D01*
X110925428Y-76462095D01*
X110925428Y-76271619D01*
X110877809Y-76176380D01*
X110830190Y-76128761D01*
X110734952Y-76081142D01*
X110925428Y-75652571D02*
X110925428Y-74890666D01*
X111306380Y-74414476D02*
X110306380Y-74414476D01*
X110306380Y-74033523D01*
X110354000Y-73938285D01*
X110401619Y-73890666D01*
X110496857Y-73843047D01*
X110639714Y-73843047D01*
X110734952Y-73890666D01*
X110782571Y-73938285D01*
X110830190Y-74033523D01*
X110830190Y-74414476D01*
X111306380Y-73271619D02*
X111258761Y-73366857D01*
X111211142Y-73414476D01*
X111115904Y-73462095D01*
X110830190Y-73462095D01*
X110734952Y-73414476D01*
X110687333Y-73366857D01*
X110639714Y-73271619D01*
X110639714Y-73128761D01*
X110687333Y-73033523D01*
X110734952Y-72985904D01*
X110830190Y-72938285D01*
X111115904Y-72938285D01*
X111211142Y-72985904D01*
X111258761Y-73033523D01*
X111306380Y-73128761D01*
X111306380Y-73271619D01*
X111306380Y-72509714D02*
X110639714Y-72509714D01*
X110830190Y-72509714D02*
X110734952Y-72462095D01*
X110687333Y-72414476D01*
X110639714Y-72319238D01*
X110639714Y-72224000D01*
X110639714Y-72033523D02*
X110639714Y-71652571D01*
X110306380Y-71890666D02*
X111163523Y-71890666D01*
X111258761Y-71843047D01*
X111306380Y-71747809D01*
X111306380Y-71652571D01*
X110401619Y-71366857D02*
X110354000Y-71319238D01*
X110306380Y-71224000D01*
X110306380Y-70985904D01*
X110354000Y-70890666D01*
X110401619Y-70843047D01*
X110496857Y-70795428D01*
X110592095Y-70795428D01*
X110734952Y-70843047D01*
X111306380Y-71414476D01*
X111306380Y-70795428D01*
X111306380Y-111878952D02*
X110306380Y-111878952D01*
X110306380Y-111640857D01*
X110354000Y-111498000D01*
X110449238Y-111402761D01*
X110544476Y-111355142D01*
X110734952Y-111307523D01*
X110877809Y-111307523D01*
X111068285Y-111355142D01*
X111163523Y-111402761D01*
X111258761Y-111498000D01*
X111306380Y-111640857D01*
X111306380Y-111878952D01*
X110782571Y-110545619D02*
X110830190Y-110402761D01*
X110877809Y-110355142D01*
X110973047Y-110307523D01*
X111115904Y-110307523D01*
X111211142Y-110355142D01*
X111258761Y-110402761D01*
X111306380Y-110498000D01*
X111306380Y-110878952D01*
X110306380Y-110878952D01*
X110306380Y-110545619D01*
X110354000Y-110450380D01*
X110401619Y-110402761D01*
X110496857Y-110355142D01*
X110592095Y-110355142D01*
X110687333Y-110402761D01*
X110734952Y-110450380D01*
X110782571Y-110545619D01*
X110782571Y-110878952D01*
X111306380Y-109831333D02*
X111306380Y-109640857D01*
X111258761Y-109545619D01*
X111211142Y-109498000D01*
X111068285Y-109402761D01*
X110877809Y-109355142D01*
X110496857Y-109355142D01*
X110401619Y-109402761D01*
X110354000Y-109450380D01*
X110306380Y-109545619D01*
X110306380Y-109736095D01*
X110354000Y-109831333D01*
X110401619Y-109878952D01*
X110496857Y-109926571D01*
X110734952Y-109926571D01*
X110830190Y-109878952D01*
X110877809Y-109831333D01*
X110925428Y-109736095D01*
X110925428Y-109545619D01*
X110877809Y-109450380D01*
X110830190Y-109402761D01*
X110734952Y-109355142D01*
X110925428Y-108926571D02*
X110925428Y-108164666D01*
X111306380Y-107688476D02*
X110306380Y-107688476D01*
X110306380Y-107307523D01*
X110354000Y-107212285D01*
X110401619Y-107164666D01*
X110496857Y-107117047D01*
X110639714Y-107117047D01*
X110734952Y-107164666D01*
X110782571Y-107212285D01*
X110830190Y-107307523D01*
X110830190Y-107688476D01*
X111306380Y-106545619D02*
X111258761Y-106640857D01*
X111211142Y-106688476D01*
X111115904Y-106736095D01*
X110830190Y-106736095D01*
X110734952Y-106688476D01*
X110687333Y-106640857D01*
X110639714Y-106545619D01*
X110639714Y-106402761D01*
X110687333Y-106307523D01*
X110734952Y-106259904D01*
X110830190Y-106212285D01*
X111115904Y-106212285D01*
X111211142Y-106259904D01*
X111258761Y-106307523D01*
X111306380Y-106402761D01*
X111306380Y-106545619D01*
X111306380Y-105783714D02*
X110639714Y-105783714D01*
X110830190Y-105783714D02*
X110734952Y-105736095D01*
X110687333Y-105688476D01*
X110639714Y-105593238D01*
X110639714Y-105498000D01*
X110639714Y-105307523D02*
X110639714Y-104926571D01*
X110306380Y-105164666D02*
X111163523Y-105164666D01*
X111258761Y-105117047D01*
X111306380Y-105021809D01*
X111306380Y-104926571D01*
X111306380Y-104069428D02*
X111306380Y-104640857D01*
X111306380Y-104355142D02*
X110306380Y-104355142D01*
X110449238Y-104450380D01*
X110544476Y-104545619D01*
X110592095Y-104640857D01*
M02*
